<svg width="40" height="40" viewBox="0 0 40 40" fill="none" xmlns="http://www.w3.org/2000/svg">
<g id="Frame 21">
<g id="Vector">
<path d="M8.63809 34.5827C7.92075 34.5827 7.30174 34.3223 6.78105 33.8016C6.26035 33.2809 6 32.6619 6 31.9446V8.93935C6 8.22202 6.26035 7.60301 6.78105 7.08232C7.30174 6.56162 7.92075 6.30127 8.63809 6.30127H31.3619C32.0792 6.30127 32.6983 6.56162 33.219 7.08232C33.7397 7.60301 34 8.22202 34 8.93935V31.9446C34 32.6619 33.7397 33.2809 33.219 33.8016C32.6983 34.3223 32.0792 34.5827 31.3619 34.5827H8.63809ZM8.63809 32.5071H31.3619C31.5025 32.5071 31.6314 32.4485 31.7488 32.3315C31.8658 32.2141 31.9244 32.0851 31.9244 31.9446V8.93935C31.9244 8.79882 31.8658 8.66986 31.7488 8.55249C31.6314 8.43542 31.5025 8.37689 31.3619 8.37689H8.63809C8.49755 8.37689 8.36859 8.43542 8.25122 8.55249C8.13416 8.66986 8.07562 8.79882 8.07562 8.93935V31.9446C8.07562 32.0851 8.13416 32.2141 8.25122 32.3315C8.36859 32.4485 8.49755 32.5071 8.63809 32.5071Z" fill="#627C89"/>
<path d="M18.8319 22.8178L19.4484 23.8453L18.3446 26.8914L17.1514 23.0829C17.0851 22.8144 16.8265 22.6388 16.5581 22.7084C14.2378 23.2884 11.5 24.3292 11.5 26.8317C11.5 27.3952 11.9574 27.8493 12.5176 27.8493C12.5176 27.8493 26.8034 27.8493 27.3669 27.8493C27.9304 27.8493 28.3845 27.3919 28.3845 26.8317C28.3845 24.3292 25.6466 23.2884 23.3264 22.7084C23.0579 22.6421 22.7994 22.8178 22.7331 23.0829C22.6668 23.3481 21.5399 26.8914 21.5399 26.8914L20.4361 23.8453L21.0526 22.8178C21.2648 22.4631 21.0095 22.0156 20.5985 22.0156H19.2893C18.8783 22.0156 18.623 22.4664 18.8352 22.8178H18.8319Z" fill="#627C89"/>
<path d="M23.1673 16.182C23.1673 17.9394 21.7427 19.364 19.9853 19.364C18.228 19.364 16.8033 17.9394 16.8033 16.182C16.8033 14.4246 18.228 13 19.9853 13C21.7427 13 23.1673 14.4246 23.1673 16.182Z" fill="#627C89"/>
</g>
</g>
</svg>
