<svg width="24" height="25" viewBox="0 0 24 25" fill="none" xmlns="http://www.w3.org/2000/svg">
<g id="key">
<mask id="mask0_340_2718" style="mask-type:alpha" maskUnits="userSpaceOnUse" x="0" y="0" width="24" height="25">
<rect id="Bounding box" y="0.0854492" width="24" height="24" fill="#D9D9D9"/>
</mask>
<g mask="url(#mask0_340_2718)">
<path id="key_2" d="M7 13.7007C6.55583 13.7007 6.17558 13.5425 5.85925 13.2262C5.54292 12.9099 5.38475 12.5296 5.38475 12.0854C5.38475 11.6413 5.54292 11.261 5.85925 10.9447C6.17558 10.6284 6.55583 10.4702 7 10.4702C7.44417 10.4702 7.82442 10.6284 8.14075 10.9447C8.45708 11.261 8.61525 11.6413 8.61525 12.0854C8.61525 12.5296 8.45708 12.9099 8.14075 13.2262C7.82442 13.5425 7.44417 13.7007 7 13.7007ZM7 17.5854C5.47217 17.5854 4.17358 17.0509 3.10425 15.9819C2.03475 14.9129 1.5 13.6149 1.5 12.0877C1.5 10.5605 2.03475 9.2617 3.10425 8.1912C4.17358 7.1207 5.47217 6.58545 7 6.58545C8.07183 6.58545 9.04108 6.86203 9.90775 7.4152C10.7744 7.96853 11.4359 8.69195 11.8923 9.58545H20.5173C20.6351 9.58545 20.7492 9.60728 20.8595 9.65095C20.9698 9.69445 21.0718 9.76303 21.1653 9.8567L22.7615 11.4527C22.8552 11.5464 22.9212 11.6455 22.9595 11.7502C22.998 11.8549 23.0173 11.967 23.0173 12.0867C23.0173 12.2064 22.998 12.3181 22.9595 12.4219C22.9212 12.5258 22.8552 12.6245 22.7615 12.7182L20.1155 15.3547C20.0405 15.4322 19.9506 15.4942 19.8458 15.5407C19.7409 15.5872 19.6366 15.6155 19.5328 15.6257C19.4289 15.636 19.3251 15.6261 19.2213 15.596C19.1174 15.5658 19.0187 15.5154 18.925 15.4449L17.6923 14.5182L16.2962 15.5547C16.2192 15.6149 16.1372 15.6584 16.05 15.6854C15.9628 15.7123 15.8724 15.7257 15.7788 15.7257C15.6853 15.7257 15.5923 15.7107 15.5 15.6807C15.4077 15.6505 15.3231 15.6085 15.2462 15.5547L13.8365 14.5854H11.8923C11.4359 15.4726 10.7744 16.1944 9.90775 16.7507C9.04108 17.3072 8.07183 17.5854 7 17.5854ZM7 16.0854C7.959 16.0854 8.78942 15.7957 9.49125 15.2162C10.1932 14.6367 10.6513 13.9264 10.8655 13.0854H14.3077L15.748 14.0817C15.7417 14.0817 15.7401 14.0842 15.7432 14.0892C15.7464 14.0944 15.748 14.0919 15.748 14.0817L17.702 12.6527L19.4 13.9509L21.2655 12.0854L20.2655 11.0854H10.8655C10.6513 10.2444 10.1932 9.5342 9.49125 8.9547C8.78942 8.3752 7.959 8.08545 7 8.08545C5.9 8.08545 4.95833 8.47712 4.175 9.26045C3.39167 10.0438 3 10.9854 3 12.0854C3 13.1854 3.39167 14.1271 4.175 14.9104C4.95833 15.6938 5.9 16.0854 7 16.0854Z" fill="#64748B"/>
</g>
</g>
</svg>
