<svg width="24" height="25" viewBox="0 0 24 25" fill="none" xmlns="http://www.w3.org/2000/svg">
<g id="person">
<mask id="mask0_340_2706" style="mask-type:alpha" maskUnits="userSpaceOnUse" x="0" y="0" width="24" height="25">
<rect id="Bounding box" y="0.0854492" width="24" height="24" fill="#D9D9D9"/>
</mask>
<g mask="url(#mask0_340_2706)">
<path id="person_2" d="M12 11.7776C11.0375 11.7776 10.2136 11.4349 9.52825 10.7496C8.84275 10.0641 8.5 9.24009 8.5 8.27759C8.5 7.31509 8.84275 6.49117 9.52825 5.80584C10.2136 5.12034 11.0375 4.77759 12 4.77759C12.9625 4.77759 13.7864 5.12034 14.4718 5.80584C15.1573 6.49117 15.5 7.31509 15.5 8.27759C15.5 9.24009 15.1573 10.0641 14.4718 10.7496C13.7864 11.4349 12.9625 11.7776 12 11.7776ZM4.5 17.8738V17.1698C4.5 16.6802 4.633 16.2267 4.899 15.8093C5.165 15.392 5.5205 15.0712 5.9655 14.8468C6.95383 14.3623 7.95092 13.9989 8.95675 13.7566C9.96258 13.5143 10.977 13.3931 12 13.3931C13.023 13.3931 14.0374 13.5143 15.0433 13.7566C16.0491 13.9989 17.0462 14.3623 18.0345 14.8468C18.4795 15.0712 18.835 15.392 19.101 15.8093C19.367 16.2267 19.5 16.6802 19.5 17.1698V17.8738C19.5 18.2955 19.3523 18.6542 19.0568 18.9498C18.7613 19.2453 18.4026 19.3931 17.9808 19.3931H6.01925C5.59742 19.3931 5.23875 19.2453 4.94325 18.9498C4.64775 18.6542 4.5 18.2955 4.5 17.8738ZM6 17.8931H18V17.1698C18 16.9673 17.9413 16.7798 17.824 16.6073C17.7067 16.435 17.5474 16.2943 17.3462 16.1853C16.4846 15.761 15.6061 15.4395 14.7107 15.2208C13.8152 15.0023 12.9117 14.8931 12 14.8931C11.0883 14.8931 10.1848 15.0023 9.28925 15.2208C8.39392 15.4395 7.51542 15.761 6.65375 16.1853C6.45258 16.2943 6.29333 16.435 6.176 16.6073C6.05867 16.7798 6 16.9673 6 17.1698V17.8931ZM12 10.2776C12.55 10.2776 13.0208 10.0818 13.4125 9.69009C13.8042 9.29842 14 8.82759 14 8.27759C14 7.72759 13.8042 7.25675 13.4125 6.86509C13.0208 6.47342 12.55 6.27759 12 6.27759C11.45 6.27759 10.9792 6.47342 10.5875 6.86509C10.1958 7.25675 10 7.72759 10 8.27759C10 8.82759 10.1958 9.29842 10.5875 9.69009C10.9792 10.0818 11.45 10.2776 12 10.2776Z" fill="#64748B"/>
</g>
</g>
</svg>
