<svg width="40" height="40" viewBox="0 0 40 40" fill="none" xmlns="http://www.w3.org/2000/svg">
<g id="qr_code_2">
<mask id="mask0_197_5377" style="mask-type:alpha" maskUnits="userSpaceOnUse" x="0" y="0" width="40" height="40">
<rect id="Bounding box" width="40" height="40" fill="#D9D9D9"/>
</mask>
<g mask="url(#mask0_197_5377)">
<path id="qr_code_2_2" d="M21.6667 34.1988V31.0254H24.8396V34.1988H21.6667ZM18.4938 31.0254V23.1729H21.6667V31.0254H18.4938ZM31.0254 25.705V20H34.1988V25.705H31.0254ZM27.8525 20V16.8271H31.0254V20H27.8525ZM8.9746 23.1729V20H12.1475V23.1729H8.9746ZM5.80127 20V16.8271H8.9746V20H5.80127ZM20 8.9746V5.80127H23.1729V8.9746H20ZM7.78835 13.3334H13.3334V7.78835H7.78835V13.3334ZM5.80127 13.8142V7.30794C5.80127 6.88099 5.94571 6.52321 6.2346 6.2346C6.52321 5.94571 6.88099 5.80127 7.30794 5.80127H13.8142C14.2409 5.80127 14.5986 5.94571 14.8875 6.2346C15.1761 6.52321 15.3204 6.88099 15.3204 7.30794V13.8142C15.3204 14.2409 15.1761 14.5986 14.8875 14.8875C14.5986 15.1761 14.2409 15.3204 13.8142 15.3204H7.30794C6.88099 15.3204 6.52321 15.1761 6.2346 14.8875C5.94571 14.5986 5.80127 14.2409 5.80127 13.8142ZM7.78835 32.2117H13.4617V26.6667H7.78835V32.2117ZM5.80127 32.6921V26.1859C5.80127 25.7592 5.94571 25.4014 6.2346 25.1125C6.52321 24.8239 6.88099 24.6796 7.30794 24.6796H13.9425C14.3692 24.6796 14.727 24.8239 15.0159 25.1125C15.3045 25.4014 15.4488 25.7592 15.4488 26.1859V32.6921C15.4488 33.119 15.3045 33.4768 15.0159 33.7654C14.727 34.0543 14.3692 34.1988 13.9425 34.1988H7.30794C6.88099 34.1988 6.52321 34.0543 6.2346 33.7654C5.94571 33.4768 5.80127 33.119 5.80127 32.6921ZM26.6667 13.3334H32.2117V7.78835H26.6667V13.3334ZM24.6796 13.8142V7.30794C24.6796 6.88099 24.8239 6.52321 25.1125 6.2346C25.4014 5.94571 25.7592 5.80127 26.1859 5.80127H32.6921C33.119 5.80127 33.4768 5.94571 33.7654 6.2346C34.0543 6.52321 34.1988 6.88099 34.1988 7.30794V13.8142C34.1988 14.2409 34.0543 14.5986 33.7654 14.8875C33.4768 15.1761 33.119 15.3204 32.6921 15.3204H26.1859C25.7592 15.3204 25.4014 15.1761 25.1125 14.8875C24.8239 14.5986 24.6796 14.2409 24.6796 13.8142ZM27.8525 34.1988V28.8779H24.6796V25.705H31.0254V31.0254H34.1988V34.1988H27.8525ZM21.6667 23.1729V20H27.8525V23.1729H21.6667ZM15.3204 23.1729V20H12.1475V16.8271H21.6667V20H18.4938V23.1729H15.3204ZM16.8271 15.3204V8.9746H20V12.1475H23.1729V15.3204H16.8271ZM9.4071 11.7146V9.4071H11.7146V11.7146H9.4071ZM9.51919 30.4809V28.1729H11.8271V30.4809H9.51919ZM28.2854 11.7146V9.4071H30.5929V11.7146H28.2854Z" fill="#627C89"/>
</g>
</g>
</svg>
